<?xml version="1.0" encoding="utf-8"?>
<!-- Generator: Adobe Illustrator 26.3.1, SVG Export Plug-In . SVG Version: 6.00 Build 0)  -->
<svg version="1.1" id="Layer_1" xmlns="http://www.w3.org/2000/svg" xmlns:xlink="http://www.w3.org/1999/xlink" x="0px" y="0px"
	 viewBox="0 0 512 512" style="enable-background:new 0 0 512 512;" xml:space="preserve">
<style type="text/css">
	.st0{fill-rule:evenodd;clip-rule:evenodd;}
</style>
<g>
	<path class="st0" d="M460.8,433.03c0,13.41-9.8,18.02-23.88,18.02h-230.4c-14.08,0-27.31-4.61-27.31-18.02V377.9h168.12
		c21.2,0,36.68-10.02,36.68-30.21V182.86h52.92c14.13,0,23.88,17.29,23.88,30.74V433.03z M78.51,329.14
		c-14.08,0-27.31-4.61-27.31-18.02V91.7c0-13.46,13.16-30.74,27.31-30.74h230.4c14.13,0,23.88,17.29,23.88,30.74v219.43
		c0,13.41-9.8,18.02-23.88,18.02H78.51z M475.32,134.1H384V55.12c0-20.19-15.49-42.93-36.68-42.93H40.12C19,12.19,0,35.01,0,55.12
		V347.7c0,20.11,19,30.21,40.12,30.21H128v91.7c0,20.11,19,30.21,40.12,30.21h307.2c21.2,0,36.68-10.02,36.68-30.21V177.03
		C512,156.84,496.51,134.1,475.32,134.1z"/>
</g>
</svg>
